<svg width="108" height="40" viewBox="0 0 108 40" fill="none" xmlns="http://www.w3.org/2000/svg">
<path d="M54.4293 7.03031V4.85042C54.4293 3.7353 54.0385 3.16694 53.2801 3.16694C52.5217 3.16694 52.1309 3.71191 52.1309 4.85042V9.0861H56.3866V10.9692H52.1309V18.597H50.0528V4.85042C50.0528 2.67053 51.202 1.25864 53.2819 1.25864C55.3618 1.25864 56.511 2.67053 56.511 4.85042V7.03031H54.4311H54.4293ZM57.6833 1.45828H59.7614V18.597H57.6833V1.45828Z" fill="#030E51"/>
<path d="M64.6787 18.7946C62.5757 18.7946 61.3022 17.5319 61.3022 15.3269V9.11096C61.3022 6.90589 62.574 5.64328 64.6787 5.64328C66.7835 5.64328 68.0535 6.90589 68.0535 9.11096V15.3287C68.0535 17.5337 66.7817 18.7964 64.6787 18.7964V18.7946ZM65.9754 9.23506C65.9754 8.09656 65.462 7.55159 64.6787 7.55159C63.8954 7.55159 63.3821 8.09656 63.3821 9.23506V15.2046C63.3821 16.3431 63.8954 16.8881 64.6787 16.8881C65.462 16.8881 65.9754 16.3431 65.9754 15.2046V9.23506Z" fill="#030E51"/>
<path d="M73.9733 11.0678V9.23506C73.9733 8.09656 73.5825 7.55158 72.8241 7.55158C72.0656 7.55158 71.6749 8.09656 71.6749 9.23506V18.5967H69.595V5.84113H71.6003V6.63431C71.8205 6.06415 72.6269 5.64328 73.3374 5.64328C75.3178 5.64328 76.0532 6.88251 76.0532 9.11096V11.0678H73.9733Z" fill="#030E51"/>
<path d="M77.2275 1.45802H79.3074V3.95985H77.2275V1.45802ZM77.2275 5.84297H79.3074V18.5967H77.2275V5.84117V5.84297Z" fill="#030E51"/>
<path d="M84.9097 18.7945C84.201 18.7945 83.3679 18.3737 83.1477 17.8035V23.3018H81.0678V5.84113H83.0731V6.68287C83.3182 6.03897 84.1494 5.64328 84.9079 5.64328C86.8883 5.64328 87.8191 6.88251 87.8191 9.11096V15.3287C87.8191 17.5571 86.8901 18.7963 84.9079 18.7963L84.9097 18.7945ZM85.7391 9.23506C85.7391 8.09656 85.2258 7.55158 84.4425 7.55158C83.6592 7.55158 83.1459 8.09656 83.1459 9.23506V15.2046C83.1459 16.3431 83.6592 16.888 84.4425 16.888C85.2258 16.888 85.7391 16.3431 85.7391 15.2046V9.23506Z" fill="#030E51"/>
<path d="M94.0337 18.5967V17.755C93.7885 18.3989 92.9573 18.7945 92.1989 18.7945C90.2184 18.7945 89.2877 17.5553 89.2877 15.3269V9.11096C89.2877 6.88251 90.2166 5.64328 92.1989 5.64328C92.9573 5.64328 93.7885 6.03897 94.0337 6.68287V5.84113H96.039V18.5967H94.0337ZM93.9608 9.23506C93.9608 8.09656 93.4475 7.55158 92.6642 7.55158C91.8809 7.55158 91.3676 8.09656 91.3676 9.23506V15.2046C91.3676 16.3431 91.8809 16.888 92.6642 16.888C93.4475 16.888 93.9608 16.3431 93.9608 15.2046V9.23506Z" fill="#030E51"/>
<path d="M58.8083 39.8005V30.4388C58.8083 29.2985 58.4175 28.7554 57.6591 28.7554C56.9006 28.7554 56.5099 29.3003 56.5099 30.4388V39.8005H54.43V30.4388C54.43 29.2985 54.0392 28.7554 53.2808 28.7554C52.5223 28.7554 52.1316 29.3003 52.1316 30.4388V39.8005H50.0517V27.0449H52.057V27.8381C52.2772 27.2679 53.0836 26.8471 53.7941 26.8471C54.9682 26.8471 55.604 27.2427 55.9948 28.0611C56.3856 27.2931 57.1209 26.8471 58.1724 26.8471C60.1529 26.8471 60.8882 28.0863 60.8882 30.3147V39.8005H58.8083Z" fill="#030E51"/>
<path d="M67.1741 39.8004V38.9586C66.929 39.6025 66.0978 39.9982 65.3393 39.9982C63.3589 39.9982 62.4282 38.759 62.4282 36.5306V30.3128C62.4282 28.0844 63.3571 26.8452 65.3393 26.8452C66.0978 26.8452 66.929 27.2408 67.1741 27.8847V27.043H69.1795V39.7986H67.1741V39.8004ZM67.1013 30.4387C67.1013 29.3002 66.588 28.7553 65.8047 28.7553C65.0214 28.7553 64.5081 29.3002 64.5081 30.4387V36.4082C64.5081 37.5468 65.0214 38.0917 65.8047 38.0917C66.588 38.0917 67.1013 37.5468 67.1013 36.4082V30.4387Z" fill="#030E51"/>
<path d="M70.9417 22.6599H73.0216V25.1617H70.9417V22.6599ZM70.9417 27.0449H73.0216V39.8004H70.9417V27.0449Z" fill="#030E51"/>
<path d="M77.6199 39.9982C75.5151 39.9982 74.2433 38.7356 74.2433 36.5305V35.6888H76.3232V36.4064C76.3232 37.5449 76.8366 38.1151 77.6199 38.1151C78.4031 38.1151 78.9396 37.6205 78.9396 36.6043C78.9396 35.91 78.7921 35.5395 78.1332 35.0197L76.2007 33.4586C75.0994 32.5665 74.4636 31.8236 74.4636 30.2391C74.4636 28.1096 75.5648 26.8452 77.6199 26.8452C79.6749 26.8452 80.8241 28.1078 80.8241 30.3128V31.1797H78.7442V30.4369C78.7442 29.3722 78.3765 28.7283 77.6199 28.7283C76.8632 28.7283 76.5186 29.2984 76.5186 30.2391C76.5186 30.9333 76.666 31.2553 77.3268 31.7751L79.2593 33.3363C80.3605 34.2283 80.9964 35.0197 80.9964 36.6061C80.9964 38.7356 79.6749 40 77.6216 40" fill="#030E51"/>
<path d="M89.3124 39.9982C87.2094 39.9982 86.0833 38.7104 86.0833 36.5305V24.0231H88.1633V27.0447H92.0531V28.9512H88.1633V36.4064C88.1633 37.5449 88.554 38.0899 89.3124 38.0899C90.0709 38.0899 90.4616 37.5449 90.4616 36.4064V34.401H92.5416V36.5305C92.5416 38.7104 91.4155 39.9982 89.3124 39.9982Z" fill="#030E51"/>
<path d="M96.945 39.9982C94.842 39.9982 93.5685 38.7356 93.5685 36.5306V30.3128C93.5685 28.1078 94.8154 26.8452 96.9202 26.8452C99.0249 26.8452 100.297 28.1078 100.297 30.3128V34.0035H95.6484V36.4064C95.6484 37.545 96.1617 38.0899 96.945 38.0899C97.7283 38.0899 98.2168 37.545 98.2168 36.4064V35.6888H100.297V36.5306C100.297 38.7356 99.0498 39.9982 96.945 39.9982ZM98.1919 30.4369C98.1919 29.2984 97.7017 28.7535 96.9202 28.7535C96.1386 28.7535 95.6484 29.2984 95.6484 30.4369V32.3201H98.1919V30.4369Z" fill="#030E51"/>
<path d="M104.796 39.9982C102.741 39.9982 101.592 38.7356 101.592 36.5305V30.338C101.592 28.1329 102.716 26.8451 104.796 26.8451C106.876 26.8451 108 28.1078 108 30.3128V31.1797H105.92V30.4369C105.92 29.347 105.577 28.7535 104.796 28.7535C104.014 28.7535 103.67 29.3722 103.67 30.4369V36.4064C103.67 37.4964 104.012 38.0899 104.796 38.0899C105.579 38.0899 105.92 37.4946 105.92 36.4064V35.6888H108V36.5305C108 38.7356 106.851 39.9982 104.796 39.9982Z" fill="#030E51"/>
<path d="M27.6755 21.8523C28.5423 22.8559 29.9011 23.4099 31.3718 23.1239C32.894 22.8289 34.1213 21.5897 34.4179 20.0501C34.9028 17.5267 33.0077 15.3162 30.6027 15.3162C29.4482 15.3162 28.4127 15.8252 27.7004 16.6346C26.9278 17.5123 25.8372 18.0339 24.6756 18.0339H22.0735C20.9456 18.0339 19.8408 17.577 19.1108 16.7065C19.0113 16.5878 18.9047 16.4763 18.7928 16.3702C17.8852 15.5177 17.3541 14.3342 17.3541 13.0806V10.1165C17.3541 8.8629 17.8852 7.67943 18.7928 6.8269C18.8692 6.75496 18.942 6.68121 19.0131 6.60208C19.839 5.69019 20.9971 5.16321 22.2191 5.16321H29.2883C30.5281 5.16321 31.6631 5.74415 32.5156 6.65423C33.2243 7.40964 34.2243 7.88087 35.3362 7.88087C37.7412 7.88087 39.6364 5.67041 39.1515 3.14879C38.8549 1.6092 37.6275 0.369973 36.1053 0.075005C34.6613 -0.205574 33.3256 0.32321 32.457 1.29085C31.6382 2.20273 30.4766 2.71713 29.2599 2.71713H22.2227C21.006 2.71713 19.8426 2.20273 19.0255 1.29085C18.3115 0.499472 17.2849 0.001263 16.1446 0.001263C15.8941 0.001263 15.6366 0.0264432 15.3755 0.075005C13.8479 0.371772 12.617 1.61819 12.3258 3.16498C12.0522 4.61644 12.5655 5.96178 13.5105 6.84129C14.4181 7.68482 14.9367 8.87189 14.9367 10.1183V13.1309C14.9367 14.3864 14.363 15.5393 13.4643 16.4026C12.7183 17.1202 12.2529 18.1328 12.2529 19.2587C12.2529 20.3846 12.7183 21.3972 13.4643 22.1149C14.363 22.9782 14.9367 24.1311 14.9367 25.3865V28.8038C14.9367 30.052 14.4163 31.2391 13.5087 32.0844C12.5655 32.964 12.0522 34.3093 12.3258 35.7608C12.617 37.3022 13.8408 38.545 15.3613 38.8453C17.8532 39.3363 20.0362 37.4173 20.0362 34.982C20.0362 33.8579 19.5708 32.8435 18.8248 32.1258C17.9261 31.2625 17.3524 30.1096 17.3524 28.8542V25.4369C17.3524 24.1815 17.8852 22.998 18.7928 22.1437C18.887 22.0555 18.9758 21.962 19.061 21.8649C19.839 20.9728 20.9704 20.4818 22.1445 20.4818H24.601C25.7715 20.4818 26.9065 20.962 27.6755 21.8541V21.8523Z" fill="url(#paint0_linear_1615_679)"/>
<path d="M9.7715 30.7013C10.5939 30.221 10.8763 29.1545 10.402 28.3217C10.0841 27.7624 9.50507 27.4494 8.91005 27.4494C8.61698 27.4494 8.32213 27.525 8.05038 27.6832C7.228 28.1635 6.94559 29.23 7.42161 30.0628C7.89585 30.8973 8.94913 31.1815 9.7715 30.7013Z" fill="url(#paint1_linear_1615_679)"/>
<path d="M4.19244 26.2697C5.52991 25.4873 5.98639 23.7571 5.21553 22.4045C4.69866 21.4963 3.75906 20.9891 2.79281 20.9891C2.31857 20.9891 1.839 21.1114 1.3985 21.3686C0.0610355 22.1509 -0.397221 23.8812 0.37542 25.2337C1.14806 26.5881 2.85675 27.0503 4.19244 26.2697Z" fill="url(#paint2_linear_1615_679)"/>
<path d="M25.347 16.5178C26.7217 15.7138 27.1942 13.9332 26.4003 12.5393C25.8674 11.6058 24.9012 11.0842 23.9065 11.0842C23.418 11.0842 22.9243 11.2101 22.4713 11.4745C21.0966 12.2785 20.6241 14.0591 21.418 15.453C22.212 16.8451 23.9704 17.3235 25.347 16.5196V16.5178Z" fill="url(#paint3_linear_1615_679)"/>
<path d="M8.91018 19.4619C8.73434 19.4619 8.55494 19.5069 8.39153 19.6022C7.8942 19.8936 7.72369 20.5375 8.01143 21.0429C8.29917 21.5465 8.93504 21.7192 9.43238 21.4278C9.92971 21.1364 10.1002 20.4925 9.81248 19.9871C9.62065 19.649 9.26897 19.4601 8.91018 19.4601V19.4619Z" fill="url(#paint4_linear_1615_679)"/>
<path d="M10.356 10.3738C10.0381 9.81628 9.45907 9.50333 8.86405 9.50333C8.57098 9.50333 8.27613 9.57887 8.00437 9.73714C7.182 10.2174 6.89959 11.2839 7.37383 12.1167C7.84985 12.9512 8.90135 13.2354 9.72372 12.7552C10.5461 12.2731 10.8285 11.2084 10.3543 10.3738H10.356Z" fill="url(#paint5_linear_1615_679)"/>
<path d="M29.661 8.87548C29.4852 8.87548 29.3058 8.92044 29.1424 9.01577C28.645 9.30714 28.4745 9.95103 28.7605 10.4564C29.0482 10.96 29.6841 11.1327 30.1832 10.8413C30.6805 10.55 30.8511 9.90607 30.5651 9.40067C30.3715 9.06253 30.0216 8.87368 29.6628 8.87368L29.661 8.87548Z" fill="url(#paint6_linear_1615_679)"/>
<path d="M24.4517 28.9585C25.2741 28.4765 25.5565 27.4117 25.0823 26.579C24.7643 26.0196 24.1853 25.7084 23.5903 25.7084C23.299 25.7084 23.0024 25.784 22.7306 25.9423C21.9082 26.4225 21.6258 27.489 22.1001 28.3218C22.5761 29.1545 23.6276 29.4405 24.4499 28.9585H24.4517Z" fill="url(#paint7_linear_1615_679)"/>
<path d="M37.5031 15.3306C37.2118 15.3306 36.9151 15.4062 36.6434 15.5645C35.821 16.0465 35.5386 17.1112 36.0128 17.944C36.4889 18.7767 37.5404 19.0627 38.3627 18.5807C39.1851 18.1005 39.4675 17.0339 38.9933 16.2012C38.6753 15.6418 38.0963 15.3288 37.5013 15.3288L37.5031 15.3306Z" fill="url(#paint8_linear_1615_679)"/>
<path d="M24.1674 33.9857C23.9738 33.9857 23.7767 34.036 23.5955 34.1422C23.0467 34.4623 22.8602 35.1709 23.1763 35.7267C23.4925 36.2825 24.1923 36.4713 24.7411 36.1512C25.2882 35.831 25.4765 35.1224 25.1603 34.5666C24.9489 34.1943 24.5635 33.9875 24.1674 33.9875V33.9857Z" fill="url(#paint9_linear_1615_679)"/>
<path d="M32.4232 27.4494C32.1319 27.4494 31.8353 27.525 31.5635 27.6832C30.7412 28.1652 30.4588 29.23 30.933 30.0628C31.409 30.8973 32.4605 31.1815 33.2829 30.7013C34.1053 30.2192 34.3877 29.1545 33.9134 28.3217C33.5937 27.7624 33.0165 27.4512 32.4214 27.4512L32.4232 27.4494Z" fill="url(#paint10_linear_1615_679)"/>
<defs>
<linearGradient id="paint0_linear_1615_679" x1="10.8515" y1="19.462" x2="43.2616" y2="19.462" gradientUnits="userSpaceOnUse">
<stop stop-color="#01D0DD"/>
<stop offset="0.03" stop-color="#03CDDD"/>
<stop offset="0.44" stop-color="#27AAE2"/>
<stop offset="0.78" stop-color="#3D94E4"/>
<stop offset="1" stop-color="#458DE6"/>
</linearGradient>
<linearGradient id="paint1_linear_1615_679" x1="7.2209" y1="29.1922" x2="11.164" y2="29.1922" gradientUnits="userSpaceOnUse">
<stop stop-color="#9744E0"/>
<stop offset="0.27" stop-color="#AF5EE8"/>
<stop offset="0.75" stop-color="#D88AF5"/>
<stop offset="0.99" stop-color="#E89BFB"/>
<stop offset="1" stop-color="#E89BFB"/>
</linearGradient>
<linearGradient id="paint2_linear_1615_679" x1="0.0486022" y1="23.82" x2="6.45353" y2="23.82" gradientUnits="userSpaceOnUse">
<stop stop-color="#9744E0"/>
<stop offset="0.27" stop-color="#AF5EE8"/>
<stop offset="0.75" stop-color="#D88AF5"/>
<stop offset="0.99" stop-color="#E89BFB"/>
<stop offset="1" stop-color="#E89BFB"/>
</linearGradient>
<linearGradient id="paint3_linear_1615_679" x1="21.0841" y1="13.9961" x2="27.6738" y2="13.9961" gradientUnits="userSpaceOnUse">
<stop stop-color="#9744E0"/>
<stop offset="0.27" stop-color="#AF5EE8"/>
<stop offset="0.75" stop-color="#D88AF5"/>
<stop offset="0.99" stop-color="#E89BFB"/>
<stop offset="1" stop-color="#E89BFB"/>
</linearGradient>
<linearGradient id="paint4_linear_1615_679" x1="7.88887" y1="20.5159" x2="10.2743" y2="20.5159" gradientUnits="userSpaceOnUse">
<stop stop-color="#9744E0"/>
<stop offset="0.27" stop-color="#AF5EE8"/>
<stop offset="0.75" stop-color="#D88AF5"/>
<stop offset="0.99" stop-color="#E89BFB"/>
<stop offset="1" stop-color="#E89BFB"/>
</linearGradient>
<linearGradient id="paint5_linear_1615_679" x1="7.17489" y1="11.2462" x2="11.118" y2="11.2462" gradientUnits="userSpaceOnUse">
<stop stop-color="#9744E0"/>
<stop offset="0.27" stop-color="#AF5EE8"/>
<stop offset="0.75" stop-color="#D88AF5"/>
<stop offset="0.99" stop-color="#E89BFB"/>
<stop offset="1" stop-color="#E89BFB"/>
</linearGradient>
<linearGradient id="paint6_linear_1615_679" x1="28.6397" y1="9.92945" x2="31.0234" y2="9.92945" gradientUnits="userSpaceOnUse">
<stop stop-color="#9744E0"/>
<stop offset="0.27" stop-color="#AF5EE8"/>
<stop offset="0.75" stop-color="#D88AF5"/>
<stop offset="0.99" stop-color="#E89BFB"/>
<stop offset="1" stop-color="#E89BFB"/>
</linearGradient>
<linearGradient id="paint7_linear_1615_679" x1="21.9011" y1="27.4495" x2="25.8443" y2="27.4495" gradientUnits="userSpaceOnUse">
<stop stop-color="#9744E0"/>
<stop offset="0.27" stop-color="#AF5EE8"/>
<stop offset="0.75" stop-color="#D88AF5"/>
<stop offset="0.99" stop-color="#E89BFB"/>
<stop offset="1" stop-color="#E89BFB"/>
</linearGradient>
<linearGradient id="paint8_linear_1615_679" x1="35.8139" y1="17.0735" x2="39.757" y2="17.0735" gradientUnits="userSpaceOnUse">
<stop stop-color="#9744E0"/>
<stop offset="0.27" stop-color="#AF5EE8"/>
<stop offset="0.75" stop-color="#D88AF5"/>
<stop offset="0.99" stop-color="#E89BFB"/>
<stop offset="1" stop-color="#E89BFB"/>
</linearGradient>
<linearGradient id="paint9_linear_1615_679" x1="23.0413" y1="35.1458" x2="25.6665" y2="35.1458" gradientUnits="userSpaceOnUse">
<stop stop-color="#9744E0"/>
<stop offset="0.27" stop-color="#AF5EE8"/>
<stop offset="0.75" stop-color="#D88AF5"/>
<stop offset="0.99" stop-color="#E89BFB"/>
<stop offset="1" stop-color="#E89BFB"/>
</linearGradient>
<linearGradient id="paint10_linear_1615_679" x1="30.7323" y1="29.1922" x2="34.6754" y2="29.1922" gradientUnits="userSpaceOnUse">
<stop stop-color="#9744E0"/>
<stop offset="0.27" stop-color="#AF5EE8"/>
<stop offset="0.75" stop-color="#D88AF5"/>
<stop offset="0.99" stop-color="#E89BFB"/>
<stop offset="1" stop-color="#E89BFB"/>
</linearGradient>
</defs>
</svg>
